<?xml version="1.0" encoding="utf-8"?>
<!-- Generator: Adobe Illustrator 23.0.6, SVG Export Plug-In . SVG Version: 6.00 Build 0)  -->
<svg version="1.1" id="Layer_1" focusable="false" xmlns="http://www.w3.org/2000/svg" xmlns:xlink="http://www.w3.org/1999/xlink"
	 x="0px" y="0px" viewBox="0 0 448 512" style="enable-background:new 0 0 448 512;" xml:space="preserve">
<style type="text/css">
	.st0{fill:#617489;}
</style>
<path class="st0" d="M400,32H48C21.5,32,0,53.5,0,80v352c0,26.5,21.5,48,48,48h352c26.5,0,48-21.5,48-48V80
	C448,53.5,426.5,32,400,32z M277.3,415.7c-8.4,1.5-11.5-3.7-11.5-8c0-5.4,0.2-33,0.2-55.3c0-15.6-5.2-25.5-11.3-30.7
	c37-4.1,76-9.2,76-73.1c0-18.2-6.5-27.3-17.1-39c1.7-4.3,7.4-22-1.7-45c-13.9-4.3-45.7,17.9-45.7,17.9c-13.2-3.7-27.5-5.6-41.6-5.6
	s-28.4,1.9-41.6,5.6c0,0-31.8-22.2-45.7-17.9c-9.1,22.9-3.5,40.6-1.7,45c-10.6,11.7-15.6,20.8-15.6,39c0,63.6,37.3,69,74.3,73.1
	c-4.8,4.3-9.1,11.7-10.6,22.3c-9.5,4.3-33.8,11.7-48.3-13.9c-9.1-15.8-25.5-17.1-25.5-17.1c-16.2-0.2-1.1,10.2-1.1,10.2
	c10.8,5,18.4,24.2,18.4,24.2c9.7,29.7,56.1,19.7,56.1,19.7c0,13.9,0.2,36.5,0.2,40.6c0,4.3-3,9.5-11.5,8
	c-66-22.1-112.2-84.9-112.2-158.3c0-91.8,70.2-161.5,162-161.5S388,165.6,388,257.4C388.1,330.8,343.3,393.7,277.3,415.7z
	 M179.2,354.6c-1.9,0.4-3.7-0.4-3.9-1.7c-0.2-1.5,1.1-2.8,3-3.2c1.9-0.2,3.7,0.6,3.9,1.9C182.5,352.9,181.2,354.2,179.2,354.6
	L179.2,354.6z M169.7,353.7c0,1.3-1.5,2.4-3.5,2.4c-2.2,0.2-3.7-0.9-3.7-2.4c0-1.3,1.5-2.4,3.5-2.4
	C167.9,351.1,169.7,352.2,169.7,353.7z M156,352.6c-0.4,1.3-2.4,1.9-4.1,1.3c-1.9-0.4-3.2-1.9-2.8-3.2c0.4-1.3,2.4-1.9,4.1-1.5
	C155.2,349.8,156.5,351.3,156,352.6L156,352.6z M143.7,347.2c-0.9,1.1-2.8,0.9-4.3-0.6c-1.5-1.3-1.9-3.2-0.9-4.1
	c0.9-1.1,2.8-0.9,4.3,0.6C144.1,344.4,144.6,346.4,143.7,347.2z M134.6,338.1c-0.9,0.6-2.6,0-3.7-1.5s-1.1-3.2,0-3.9
	c1.1-0.9,2.8-0.2,3.7,1.3C135.7,335.5,135.7,337.3,134.6,338.1z M128.1,328.4c-0.9,0.9-2.4,0.4-3.5-0.6c-1.1-1.3-1.3-2.8-0.4-3.5
	c0.9-0.9,2.4-0.4,3.5,0.6C128.8,326.2,129,327.7,128.1,328.4z M121.4,321c-0.4,0.9-1.7,1.1-2.8,0.4c-1.3-0.6-1.9-1.7-1.5-2.6
	c0.4-0.6,1.5-0.9,2.8-0.4C121.2,319.1,121.8,320.2,121.4,321z"/>
</svg>
