<?xml version="1.0" encoding="utf-8"?>
<!-- Generator: Adobe Illustrator 23.1.1, SVG Export Plug-In . SVG Version: 6.00 Build 0)  -->
<svg version="1.1" id="Layer_1" focusable="false" xmlns="http://www.w3.org/2000/svg" xmlns:xlink="http://www.w3.org/1999/xlink"
	 x="0px" y="0px" viewBox="0 0 448 512" style="enable-background:new 0 0 448 512;" xml:space="preserve">
<style type="text/css">
	.st0{fill:#617489;}
</style>
<g>
	<polygon class="st0" points="82.1,184.2 82.1,333.9 177.3,246.1 	"/>
	<path class="st0" d="M223.8,276.1l-27.5-17.3L83,363.6c1.3,2.6,4,4.3,7.1,4.3h268.8c3.3,0,6.2-2.1,7.4-5L252.5,258.1L223.8,276.1z"
		/>
	<path class="st0" d="M362.2,158c-1-0.5-2.1-0.7-3.3-0.7H90c-1.2,0-2.3,0.3-3.3,0.7l137.7,90.1L362.2,158z"/>
	<polygon class="st0" points="366.8,329.8 366.8,182.1 271.8,245.1 	"/>
	<path class="st0" d="M416.4,32H32.3C14.7,32,0.4,46.5,0.4,64.3v383.4c0,17.8,14.3,32.3,31.9,32.3h384.1c17.6,0,32-14.5,32-32.3
		V64.3C448.4,46.5,434,32,416.4,32z M383.8,360c0,13.7-11.2,24.9-24.9,24.9H90c-13.7,0-24.9-11.2-24.9-24.9V165.2
		c0-6.2,2.3-11.9,6.1-16.3v-0.4h0.4c4.6-5,11.2-8.2,18.5-8.2h268.8c7.3,0,13.9,3.2,18.5,8.2h0.4v0.4c3.8,4.4,6.1,10.1,6.1,16.3V360z
		"/>
</g>
</svg>
