<?xml version="1.0" encoding="utf-8"?>
<!-- Generator: Adobe Illustrator 23.0.6, SVG Export Plug-In . SVG Version: 6.00 Build 0)  -->
<svg version="1.1" id="Layer_1" xmlns="http://www.w3.org/2000/svg" xmlns:xlink="http://www.w3.org/1999/xlink" x="0px" y="0px"
	 viewBox="0 0 400 400" style="enable-background:new 0 0 400 400;" xml:space="preserve">
<style type="text/css">
	.st0{fill:#F0EFE5;}
</style>
<g>
	<path class="st0" d="M298.5,319.1c-4.5,0-8.5,1.8-11.5,4.8l-29.4-18.6c-0.6-0.3-1.3-0.6-1.8-0.6l-86.2-0.3l0.3-105.1h65.4
		l19.6,50.7c-4.3,2.9-7.3,7.8-7.3,13.4c0,9,7.3,16.2,16.2,16.2s16.2-7.3,16.2-16.2c0-9-7.3-16.2-16.2-16.2c-0.8,0-1.7,0.1-2.4,0.1
		l-19.3-49.8l46.9-19.9c2.9,4.1,7.7,6.9,13.2,6.9c9,0,16.2-7.3,16.2-16.2s-7.3-16.2-16.2-16.2s-16.2,7.3-16.2,16.2
		c0,1,0.1,2,0.3,2.9L236.9,192h-67l0.1-68.7h90.4c1.3,0,2.5-0.7,3.1-1.8l17.6-33.3c1.4,0.4,2.8,0.6,4.3,0.6c9,0,16.2-7.3,16.2-16.2
		s-7.3-16.2-16.2-16.2s-16.2,7.3-16.2,16.2c0,4.9,2.2,9.4,5.7,12.3l-16.7,31.5H170l0.1-48.1c0-6.2-2.8-12-7.6-15.8
		c-47.4-36.4-127.6,15.1-118,57.8c0.3-0.3,0.7-0.4,1.1-0.6c1.7-0.4,41.1-8.7,58.9,8.4c7.3,7.1,9.8,17.4,7.4,30.7
		c-0.3,1.4-1.4,2.2-2.8,2.2c-0.1,0-0.3,0-0.6,0c-1.5-0.3-2.5-1.7-2.2-3.2c2.1-11.3,0.1-19.9-5.7-25.6c-15.5-15-53.6-8-55.7-7.7
		c-60.6,7.8-61,141.6,5.3,142.5c-0.1,0.6,0.1-0.6,0,0c3.9-4.6,8.8-9.8,14.7-15.1c10.6-9.7,21.8-16.9,33.2-21.6
		c0.3-42.1-23.1-44.8-24.1-44.9c-1.5-0.1-2.7-1.5-2.5-3.1c0.1-1.5,1.5-2.7,2.9-2.5c1.3,0.1,28.7,2.8,29.3,48.4
		c9.2-3.1,18.5-4.6,27.6-4.3c1.5,0,2.8,1.4,2.7,2.9c0,1.5-1.3,2.7-2.8,2.7c0,0,0,0-0.1,0c-40-1.1-71,33.4-82.2,48.1
		c-7.1,84.1,67.7,98.4,104.1,90.8c3.1-0.6,5.7-2,8.1-3.8c-0.3-6.7-1.3-17.4-5.5-28.4c-9.1-24.1-27.9-38.5-55.8-43
		c-1.5-0.3-2.5-1.7-2.4-3.2c0.1-1.5,1.7-2.5,3.2-2.4c37.6,5.9,53.6,28.6,60.3,46.7c3.4,9,4.8,17.5,5.5,24.2
		c1.7-2.9,2.7-6.4,2.7-10.1l0.1-26.9l85.2,0.3l28.6,18.1c-0.6,1.7-1,3.5-1,5.5c0,9,7.3,16.2,16.2,16.2s16.2-7.3,16.2-16.2
		C314.6,326.2,307.3,319.1,298.5,319.1z"/>
	<path class="st0" d="M347,42.9h20.7c5.5,0,10.1,1.1,14.3,3.2c4.2,2.1,7.3,5.2,9.7,9c2.2,3.9,3.4,8.3,3.4,13.2s-1.1,9.4-3.4,13.2
		c-2.2,3.9-5.5,6.9-9.7,9.1c-4.1,2.1-8.8,3.2-14.3,3.2H347L347,42.9L347,42.9z M367.5,89.1c4.5,0,8.4-0.8,11.8-2.7
		c3.4-1.8,5.9-4.2,7.8-7.3c2-3.1,2.8-6.7,2.8-10.8c0-4.1-1-7.7-2.8-10.8s-4.5-5.6-7.8-7.3c-3.4-1.8-7.3-2.7-11.8-2.7h-15.1v41.4
		H367.5z"/>
	<path class="st0" d="M379,165.5h-28.4l-6.2,13.6h-5.6l23.4-50.8h5.3l23.2,50.9H385L379,165.5z M377,161.2l-12.2-27.3l-12.2,27.3
		H377z"/>
	<path class="st0" d="M399.9,213.7v50.9h-5.2v-40.7l-20,34.3h-2.5l-20-34v40.6H347v-50.9h4.5l22.1,37.8l21.8-37.8L399.9,213.7
		L399.9,213.7z"/>
	<path class="st0" d="M347,299.1h5.3v46.2h28.6v4.6H347V299.1L347,299.1z"/>
</g>
</svg>
