<?xml version="1.0" encoding="utf-8"?>
<!-- Generator: Adobe Illustrator 24.2.1, SVG Export Plug-In . SVG Version: 6.00 Build 0)  -->
<svg version="1.1" id="Layer_1" xmlns="http://www.w3.org/2000/svg" xmlns:xlink="http://www.w3.org/1999/xlink" x="0px" y="0px"
	 viewBox="0 0 210 210" style="enable-background:new 0 0 210 210;" xml:space="preserve">
<style type="text/css">
	.st0{fill:none;stroke:#1E2C3A;stroke-width:5;stroke-miterlimit:10;}
</style>
<path class="st0" d="M-8.1,105.1c2-6.6,8.1-15.3,9.5-21.2c2.1-4.9,6.1-17,7.8-20.8c1.8-4.2,4.8-10.9,6.6-14.8
	c1.8-3.9,4.8-9.9,6.6-13.4c1.8-3.5,4.8-8.6,6.6-11.5s4.8-7,6.6-9.2c1.8-2.2,4.8-5.1,6.6-6.5c1.8-1.4,4.8-3,6.6-3.6
	c1.8-0.6,4.8-0.8,6.6-0.5C57.2,3.9,60.2,5,62,6.2c1.8,1.1,4.8,3.6,6.6,5.5c1.8,1.9,4.8,5.7,6.6,8.3c1.8,2.6,4.8,7.5,6.6,10.8
	c1.8,3.3,4.8,9,6.6,12.8c1.8,3.8,4.8,10.2,6.6,14.4c1.8,4.1,4.8,11,6.6,15.4c1.8,4.3,4.8,11.4,6.6,15.8c1.8,4.3,4.8,11.4,6.6,15.6
	c1.8,4.2,4.8,10.9,6.6,14.8c1.8,3.9,4.8,9.9,6.6,13.4c1.8,3.5,4.8,8.6,6.6,11.5c1.8,2.9,4.8,7,6.6,9.2c1.8,2.2,4.8,5.1,6.6,6.5
	c1.8,1.4,4.8,3,6.6,3.6c1.8,0.6,4.8,0.8,6.6,0.5c1.8-0.3,4.8-1.4,6.6-2.5s4.8-3.6,6.6-5.5c1.8-1.9,4.8-5.7,6.6-8.3
	c1.8-2.6,4.8-7.5,6.6-10.8c1.8-3.3,4.8-9,6.6-12.8c1.8-3.8,4.8-10.2,6.6-14.3c1.8-4.1,4.8-11,6.6-15.4c1.8-4.3,4.8-11.4,6.6-15.8"/>
</svg>
