<svg version="1.1" viewBox="0.0 0.0 960.0 720.0" fill="none" stroke="none" stroke-linecap="square" stroke-miterlimit="10" xmlns:xlink="http://www.w3.org/1999/xlink" xmlns="http://www.w3.org/2000/svg"><clipPath id="p.0"><path d="m0 0l960.0 0l0 720.0l-960.0 0l0 -720.0z" clip-rule="nonzero"/></clipPath><g clip-path="url(#p.0)"><path fill="#000000" fill-opacity="0.0" d="m0 0l960.0 0l0 720.0l-960.0 0z" fill-rule="evenodd"/><path fill="#000000" fill-opacity="0.0" d="m199.7454 48.280838l1.9842529 524.7244" fill-rule="evenodd"/><path stroke="#000000" stroke-width="12.0" stroke-linejoin="round" stroke-linecap="butt" d="m199.7454 48.280838l1.9842529 524.7244" fill-rule="evenodd"/><path fill="#000000" fill-opacity="0.0" d="m343.75592 63.07874l162.20471 0l0 272.189l-162.20471 0z" fill-rule="evenodd"/><path fill="#000000" d="m479.2403 198.79123q-12.0 28.5625 -26.640625 54.734375q-0.71875 1.4375 -2.765625 4.4375q-2.03125 3.0 -3.359375 5.40625q-1.3125 2.390625 -2.03125 4.546875q-0.25 0.96875 -0.25 2.875q0 6.96875 2.640625 11.890625q2.640625 4.921875 7.203125 4.921875q5.515625 0 9.0 -2.875q3.484375 -2.890625 6.59375 -12.484375l5.28125 1.921875q-1.203125 6.46875 -3.84375 12.953125q-2.625 6.484375 -7.90625 12.25q-5.28125 5.75 -11.765625 5.75q-13.6875 0 -13.6875 -23.046875q0 -2.640625 0.25 -6.46875l-0.484375 0q-7.671875 12.46875 -21.0 21.0q-13.3125 8.515625 -27.234375 8.515625q-16.328125 0 -25.328125 -10.5625q-9.0 -10.5625 -9.0 -27.125q0 -25.4375 19.3125 -48.109375q19.328125 -22.6875 44.296875 -22.6875q7.4375 0 12.71875 3.25q5.28125 3.234375 8.03125 8.640625q2.765625 5.390625 3.96875 11.15625q1.203125 5.75 1.203125 12.234375q0 1.921875 0 3.84375l0.46875 0l14.890625 -36.96875l19.4375 0zm-41.765625 31.6875q0 -28.3125 -19.921875 -28.3125q-12.484375 0 -22.6875 13.3125q-10.1875 13.3125 -15.0 29.28125q-4.796875 15.953125 -4.796875 27.953125q0 11.28125 4.078125 19.09375q4.09375 7.796875 13.453125 7.796875q13.203125 0 24.0 -12.84375q10.796875 -12.84375 15.828125 -28.4375q5.046875 -15.609375 5.046875 -27.84375z" fill-rule="nonzero"/><path fill="#000000" fill-opacity="0.0" d="m474.41733 168.60892l154.83463 0l0 301.7953l-154.83463 0z" fill-rule="evenodd"/><path fill="#000000" d="m591.9017 378.96204q-7.6875 31.6875 -29.765625 31.6875q-6.71875 0 -11.046875 -4.4375q-4.3125 -4.4375 -4.3125 -11.890625q0 -6.0 4.796875 -22.078125l-0.71875 0q-6.953125 15.359375 -18.0 26.890625q-11.03125 11.515625 -24.953094 11.515625q-18.0 0 -18.96875 -23.046875l-0.46875 0q-3.609375 13.921875 -3.609375 25.6875q0 10.796875 2.40625 18.0q4.5625 14.15625 4.5625 16.796875q0 4.796875 -2.53125 7.796875q-2.515625 3.0 -6.59375 3.0q-11.515625 0 -11.515625 -18.0q0 -5.515625 2.15625 -13.1875l33.59375 -123.125l18.96872 0l-20.40622 74.640625q-1.4375 5.03125 -1.4375 10.5625q0 12.234375 9.8437195 12.234375q6.953125 0 13.4375 -4.078125q6.484375 -4.078125 11.75 -11.875q5.28125 -7.8125 9.359375 -15.71875q4.09375 -7.921875 7.8125 -19.203125q3.71875 -11.28125 5.875 -18.125q2.15625 -6.84375 4.671875 -16.921875q2.53125 -10.078125 3.015625 -11.515625l18.953125 0l-22.5625 82.3125q-1.671875 6.25 -1.671875 8.640625q0 5.28125 4.5625 5.28125q6.0 0 11.03125 -8.640625q5.046875 -8.640625 6.71875 -15.109375l5.046875 1.90625z" fill-rule="nonzero"/><path fill="#000000" fill-opacity="0.0" d="m583.22833 305.82416l150.39374 0l0 267.1811l-150.39374 0z" fill-rule="evenodd"/><path fill="#000000" d="m699.5096 516.9116q-2.15625 11.265625 -8.40625 21.109375q-6.234375 9.84375 -14.875 9.84375q-15.59375 0 -15.59375 -28.5625l0 -48.71872l-0.484375 0l-47.046875 74.640594l-23.515625 0l69.125 -108.71872q0 -0.96875 0.109375 -3.84375q0.125 -2.875 0.125 -4.796875q0 -27.84375 -14.15625 -27.84375q-11.765625 0 -15.125 15.609375l-5.03125 -1.6875q4.3125 -31.4375 21.109375 -31.4375q6.484375 0 10.6875 3.484375q4.203125 3.46875 6.109375 9.828125q1.921875 6.359375 2.640625 11.890625q0.734375 5.515625 0.96875 13.203125l2.390625 82.3125q0.25 8.40625 0.84375 13.4530945q0.609375 5.03125 3.359375 9.359375q2.765625 4.3125 7.5625 4.3125q6.484375 0 10.203125 -6.484375q3.71875 -6.484375 3.71875 -8.875l5.28125 1.921875z" fill-rule="nonzero"/><path fill="#000000" fill-opacity="0.0" d="m746.4383 38.637794l1.9842529 524.72437" fill-rule="evenodd"/><path stroke="#000000" stroke-width="12.0" stroke-linejoin="round" stroke-linecap="butt" d="m746.4383 38.637794l1.9842529 524.72437" fill-rule="evenodd"/><path fill="#000000" fill-opacity="0.0" d="m219.18373 -9.690289l154.83464 0l0 248.31496l-154.83464 0z" fill-rule="evenodd"/><path fill="#000000" d="m270.90247 232.35033q-11.03125 0 -18.843735 -4.078125q-7.796875 -4.078125 -11.15625 -10.203125q-3.359375 -6.125 -4.6875 -10.921875q-1.3125 -4.796875 -1.3125 -8.640625q0 -30.484375 17.28125 -50.28125q17.281235 -19.796875 38.156235 -19.796875q8.40625 0 12.71875 1.921875l0.484375 -0.484375q-0.953125 -1.671875 -6.84375 -9.46875q-5.875 -7.8125 -9.84375 -15.84375q-3.953125 -8.046875 -3.953125 -15.96875q0 -21.359375 33.59375 -21.359375q10.8125 0 18.125 7.203125q7.328125 7.203125 10.6875 18.484375l-4.8125 2.390625q-3.359375 -9.59375 -9.484375 -16.0625q-6.109375 -6.484375 -14.984375 -6.484375q-5.53125 0 -9.25 3.125q-3.71875 3.109375 -3.71875 10.0625q0 6.0 5.15625 15.484375q5.171875 9.484375 11.40625 18.125q6.25 8.640625 11.40625 20.640625q5.15625 12.0 5.15625 22.5625q0 28.078125 -18.84375 48.84375q-18.84375 20.75 -46.4375 20.75zm44.640625 -76.5625l-3.59375 -9.59375q-4.328125 -12.25 -19.6875 -12.25q-10.3125 0 -19.203125 11.171875q-8.875 11.15625 -13.4375 26.15625q-4.5624847 15.0 -4.5624847 28.671875q0 14.40625 5.2812347 20.65625q5.28125 6.234375 12.0 6.234375q18.484375 0 31.6875 -16.5625q13.203125 -16.5625 13.203125 -35.765625q0 -0.71875 0.109375 -3.0q0.125 -2.28125 0.125 -3.71875q0 -7.203125 -1.921875 -12.0z" fill-rule="nonzero"/></g></svg>