<svg width="724" height="270" viewBox="0 0 724 270" fill="none" xmlns="http://www.w3.org/2000/svg">
<path d="M236.49 219.6C233.28 219.6 230.38 220.91 228.28 223.02L207.3 209.76C206.9 209.51 206.44 209.38 205.97 209.37L144.37 209.14L144.57 134.02H191.31L205.31 170.26C202.2 172.33 200.15 175.87 200.15 179.89C200.15 186.28 205.33 191.45 211.71 191.45C218.1 191.45 223.27 186.27 223.27 179.89C223.27 173.5 218.09 168.33 211.71 168.33C211.12 168.33 210.55 168.39 209.98 168.47L196.23 132.87L229.71 118.68C231.81 121.62 235.24 123.54 239.12 123.54C245.51 123.54 250.68 118.36 250.68 111.98C250.68 105.59 245.5 100.42 239.12 100.42C232.73 100.42 227.56 105.6 227.56 111.98C227.56 112.7 227.63 113.4 227.76 114.08L192.52 129.02H144.59L144.72 79.96H209.35C210.28 79.96 211.13 79.45 211.56 78.63L224.18 54.8C225.16 55.07 226.19 55.23 227.25 55.23C233.64 55.23 238.81 50.05 238.81 43.67C238.81 37.28 233.63 32.11 227.25 32.11C220.86 32.11 215.69 37.29 215.69 43.67C215.69 47.2 217.27 50.35 219.76 52.47L207.84 74.97H144.73L144.82 40.6C144.83 36.21 142.87 32 139.4 29.3C105.55 3.05 48.25 39.85 55.14 70.35C55.38 70.16 55.65 70.01 55.97 69.94C57.17 69.68 85.39 63.72 98.03 75.97C103.27 81.05 105.05 88.42 103.3 97.86C103.12 98.82 102.28 99.5 101.34 99.5C101.22 99.5 101.1 99.49 100.97 99.47C99.88 99.27 99.17 98.23 99.37 97.14C100.85 89.09 99.47 82.94 95.25 78.85C84.15 68.09 56.95 73.15 55.48 73.31C12.14 78.89 11.86 174.51 59.3 175.06C59.24 175.42 59.36 174.7 59.3 175.06C62.09 171.8 65.6 168.06 69.75 164.31C77.39 157.42 85.38 152.25 93.47 148.88C93.66 118.74 76.99 116.84 76.27 116.78C75.17 116.68 74.36 115.71 74.45 114.62C74.54 113.52 75.5 112.71 76.59 112.8C77.45 112.87 97.07 114.81 97.46 147.39C104.03 145.14 110.65 144.07 117.19 144.26C118.29 144.29 119.16 145.21 119.13 146.32C119.1 147.4 118.21 148.26 117.13 148.26C117.11 148.26 117.09 148.26 117.07 148.26C88.44 147.47 66.41 172.12 58.36 182.62C53.23 242.71 106.72 252.93 132.78 247.48C134.95 247.03 136.92 246.09 138.6 244.82C138.44 240.01 137.66 232.39 134.68 224.51C128.17 207.28 114.73 196.96 94.74 193.84C93.65 193.67 92.9 192.65 93.07 191.56C93.24 190.47 94.26 189.72 95.35 189.89C122.22 194.09 133.63 210.34 138.46 223.24C140.85 229.62 141.91 235.75 142.35 240.57C143.58 238.45 144.28 236 144.28 233.41L144.33 214.16L205.21 214.39L225.58 227.27C225.14 228.49 224.89 229.81 224.89 231.18C224.89 237.57 230.07 242.74 236.45 242.74C242.84 242.74 248.01 237.56 248.01 231.18C248.05 224.78 242.87 219.6 236.49 219.6Z" fill="#F0EFE5"/>
<path d="M271.23 22.29H286.05C289.9 22.29 293.3 23.06 296.24 24.6C299.19 26.14 301.47 28.29 303.1 31.05C304.73 33.81 305.54 36.95 305.54 40.49C305.54 44.03 304.72 47.17 303.1 49.93C301.47 52.69 299.18 54.84 296.24 56.38C293.29 57.92 289.9 58.69 286.05 58.69H271.23V22.29ZM285.84 55.36C289.03 55.36 291.82 54.73 294.21 53.46C296.6 52.19 298.46 50.44 299.77 48.21C301.08 45.98 301.75 43.4 301.75 40.49C301.75 37.58 301.09 35 299.77 32.77C298.45 30.53 296.6 28.78 294.21 27.52C291.82 26.25 289.03 25.62 285.84 25.62H275.08V55.36H285.84Z" fill="#F0EFE5"/>
<path d="M330.82 54.95C328.18 52.25 326.87 48.31 326.87 43.15V22.29H330.72V42.99C330.72 47.22 331.67 50.37 333.58 52.45C335.49 54.53 338.24 55.57 341.85 55.57C345.49 55.57 348.26 54.53 350.17 52.45C352.08 50.37 353.03 47.22 353.03 42.99V22.29H356.77V43.14C356.77 48.31 355.46 52.24 352.84 54.94C350.22 57.64 346.56 59 341.84 59C337.13 59 333.46 57.65 330.82 54.95Z" fill="#F0EFE5"/>
<path d="M392.65 41.58L385.21 49.12V58.69H381.36V22.29H385.21V44.29L406.58 22.29H411L395.24 38.77L412.09 58.69H407.51L392.65 41.58Z" fill="#F0EFE5"/>
<path d="M457.08 55.36V58.69H431.34V22.29H456.3V25.62H435.19V38.57H454.01V41.85H435.19V55.37H457.08V55.36Z" fill="#F0EFE5"/>
<path d="M294.06 109.97H273.78L269.41 119.69H265.41L282.05 83.29H285.85L302.49 119.69H298.43L294.06 109.97ZM292.66 106.85L283.92 87.3L275.18 106.85H292.66Z" fill="#F0EFE5"/>
<path d="M346.06 86.62C348.69 88.84 350.01 91.89 350.01 95.77C350.01 99.65 348.69 102.69 346.06 104.9C343.43 107.1 339.79 108.2 335.14 108.2H325.36V119.69H321.51V83.29H335.13C339.79 83.29 343.42 84.4 346.06 86.62ZM343.3 102.45C345.21 100.87 346.16 98.65 346.16 95.77C346.16 92.82 345.21 90.56 343.3 88.98C341.39 87.4 338.64 86.61 335.03 86.61H325.36V104.81H335.03C338.64 104.82 341.4 104.03 343.3 102.45Z" fill="#F0EFE5"/>
<path d="M395.88 86.62C398.51 88.84 399.83 91.89 399.83 95.77C399.83 99.65 398.51 102.69 395.88 104.9C393.25 107.1 389.61 108.2 384.96 108.2H375.18V119.69H371.33V83.29H384.95C389.6 83.29 393.24 84.4 395.88 86.62ZM393.12 102.45C395.03 100.87 395.98 98.65 395.98 95.77C395.98 92.82 395.03 90.56 393.12 88.98C391.21 87.4 388.46 86.61 384.85 86.61H375.18V104.81H384.85C388.46 104.82 391.21 104.03 393.12 102.45Z" fill="#F0EFE5"/>
<path d="M421.15 83.29H425V116.36H445.38V119.69H421.15V83.29Z" fill="#F0EFE5"/>
<path d="M464.77 83.29H468.62V119.69H464.77V83.29Z" fill="#F0EFE5"/>
<path d="M519.22 116.36V119.69H493.48V83.29H518.44V86.62H497.33V99.57H516.15V102.85H497.33V116.37H519.22V116.36Z" fill="#F0EFE5"/>
<path d="M541.26 83.29H556.08C559.93 83.29 563.33 84.06 566.27 85.6C569.22 87.14 571.5 89.29 573.13 92.05C574.76 94.81 575.57 97.95 575.57 101.49C575.57 105.03 574.75 108.17 573.13 110.93C571.5 113.69 569.21 115.84 566.27 117.38C563.32 118.92 559.93 119.69 556.08 119.69H541.26V83.29ZM555.88 116.36C559.07 116.36 561.86 115.73 564.25 114.46C566.64 113.19 568.5 111.44 569.81 109.21C571.12 106.98 571.79 104.4 571.79 101.49C571.79 98.58 571.13 96 569.81 93.77C568.49 91.53 566.64 89.78 564.25 88.52C561.86 87.25 559.07 86.62 555.88 86.62H545.12V116.36H555.88Z" fill="#F0EFE5"/>
<path d="M309.04 144.29V180.69H305.35V151.57L291.05 176.06H289.23L274.93 151.72V180.68H271.24V144.28H274.41L290.22 171.27L305.87 144.28H309.04V144.29Z" fill="#F0EFE5"/>
<path d="M356.72 170.97H336.44L332.07 180.69H328.07L344.71 144.29H348.51L365.15 180.69H361.09L356.72 170.97ZM355.31 167.85L346.57 148.3L337.83 167.85H355.31Z" fill="#F0EFE5"/>
<path d="M389.71 178.61C386.81 177.02 384.54 174.81 382.9 171.98C381.25 169.15 380.43 165.99 380.43 162.49C380.43 158.99 381.25 155.83 382.9 153C384.55 150.18 386.83 147.96 389.74 146.37C392.65 144.78 395.91 143.98 399.52 143.98C402.22 143.98 404.72 144.43 407.01 145.33C409.3 146.23 411.24 147.55 412.83 149.28L410.39 151.72C407.55 148.84 403.96 147.4 399.63 147.4C396.75 147.4 394.14 148.06 391.78 149.38C389.42 150.7 387.58 152.5 386.24 154.79C384.91 157.08 384.24 159.64 384.24 162.49C384.24 165.33 384.91 167.9 386.24 170.19C387.57 172.48 389.42 174.28 391.78 175.6C394.14 176.92 396.75 177.58 399.63 177.58C404 177.58 407.59 176.12 410.39 173.21L412.83 175.65C411.24 177.38 409.29 178.71 406.98 179.63C404.67 180.55 402.17 181.01 399.47 181.01C395.86 181 392.61 180.21 389.71 178.61Z" fill="#F0EFE5"/>
<path d="M464.46 144.29V180.69H460.66V163.89H437.88V180.69H434.03V144.29H437.88V160.51H460.66V144.29H464.46Z" fill="#F0EFE5"/>
<path d="M489.32 144.29H493.17V180.69H489.32V144.29Z" fill="#F0EFE5"/>
<path d="M548.44 144.29V180.69H545.27L521.87 151.15V180.69H518.02V144.29H521.19L544.64 173.83V144.29H548.44Z" fill="#F0EFE5"/>
<path d="M599.04 177.36V180.69H573.3V144.29H598.26V147.62H577.15V160.57H595.97V163.85H577.15V177.37H599.04V177.36Z" fill="#F0EFE5"/>
<path d="M271.23 205.29H275.08V238.36H295.46V241.69H271.23V205.29Z" fill="#F0EFE5"/>
<path d="M340.6 238.36V241.69H314.86V205.29H339.82V208.62H318.71V221.57H337.53V224.85H318.71V238.37H340.6V238.36Z" fill="#F0EFE5"/>
<path d="M385.47 231.97H365.19L360.82 241.69H356.82L373.46 205.29H377.26L393.9 241.69H389.84L385.47 231.97ZM384.07 228.85L375.33 209.3L366.59 228.85H384.07Z" fill="#F0EFE5"/>
<path d="M437.79 241.69L429.47 229.99C428.53 230.09 427.56 230.15 426.56 230.15H416.78V241.69H412.93V205.29H426.55C431.2 205.29 434.84 206.4 437.47 208.62C440.1 210.84 441.42 213.89 441.42 217.77C441.42 220.61 440.7 223.01 439.26 224.97C437.82 226.93 435.77 228.34 433.1 229.21L441.99 241.69H437.79ZM434.72 224.48C436.63 222.89 437.58 220.65 437.58 217.77C437.58 214.82 436.63 212.56 434.72 210.98C432.81 209.4 430.06 208.61 426.45 208.61H416.78V226.86H426.45C430.06 226.87 432.81 226.08 434.72 224.48Z" fill="#F0EFE5"/>
<path d="M493.95 205.29V241.69H490.78L467.38 212.15V241.69H463.53V205.29H466.7L490.15 234.83V205.29H493.95Z" fill="#F0EFE5"/>
<path d="M518.8 205.29H522.65V241.69H518.8V205.29Z" fill="#F0EFE5"/>
<path d="M577.92 205.29V241.69H574.75L551.35 212.15V241.69H547.5V205.29H550.67L574.12 234.83V205.29H577.92Z" fill="#F0EFE5"/>
<path d="M628.42 223.49H632.11V237.37C630.41 238.86 628.4 240.01 626.08 240.8C623.76 241.6 621.31 242 618.75 242C615.11 242 611.83 241.2 608.92 239.61C606.01 238.02 603.72 235.81 602.06 232.98C600.4 230.15 599.56 226.99 599.56 223.49C599.56 219.99 600.39 216.83 602.06 214C603.72 211.18 606.01 208.97 608.92 207.37C611.83 205.78 615.13 204.98 618.8 204.98C621.57 204.98 624.12 205.42 626.44 206.31C628.76 207.19 630.72 208.5 632.32 210.24L629.93 212.68C627.05 209.84 623.39 208.42 618.96 208.42C616.01 208.42 613.35 209.07 610.98 210.37C608.6 211.67 606.74 213.47 605.39 215.78C604.04 218.09 603.36 220.66 603.36 223.5C603.36 226.34 604.04 228.91 605.39 231.2C606.74 233.49 608.6 235.29 610.95 236.61C613.3 237.93 615.96 238.59 618.91 238.59C622.65 238.59 625.83 237.65 628.43 235.78V223.49H628.42Z" fill="#F0EFE5"/>
</svg>
