<svg version="1.1" viewBox="0.0 0.0 960.0 720.0" fill="none" stroke="none" stroke-linecap="square" stroke-miterlimit="10" xmlns:xlink="http://www.w3.org/1999/xlink" xmlns="http://www.w3.org/2000/svg"><clipPath id="p.0"><path d="m0 0l960.0 0l0 720.0l-960.0 0l0 -720.0z" clip-rule="nonzero"/></clipPath><g clip-path="url(#p.0)"><path fill="#000000" fill-opacity="0.0" d="m0 0l960.0 0l0 720.0l-960.0 0z" fill-rule="evenodd"/><path fill="#000000" fill-opacity="0.0" d="m199.7454 48.280838l1.9842529 524.7244" fill-rule="evenodd"/><path stroke="#000000" stroke-width="12.0" stroke-linejoin="round" stroke-linecap="butt" d="m199.7454 48.280838l1.9842529 524.7244" fill-rule="evenodd"/><path fill="#000000" fill-opacity="0.0" d="m343.75592 63.07874l162.20471 0l0 272.189l-162.20471 0z" fill-rule="evenodd"/><path fill="#000000" d="m479.2403 198.79123q-12.0 28.5625 -26.640625 54.734375q-0.71875 1.4375 -2.765625 4.4375q-2.03125 3.0 -3.359375 5.40625q-1.3125 2.390625 -2.03125 4.546875q-0.25 0.96875 -0.25 2.875q0 6.96875 2.640625 11.890625q2.640625 4.921875 7.203125 4.921875q5.515625 0 9.0 -2.875q3.484375 -2.890625 6.59375 -12.484375l5.28125 1.921875q-1.203125 6.46875 -3.84375 12.953125q-2.625 6.484375 -7.90625 12.25q-5.28125 5.75 -11.765625 5.75q-13.6875 0 -13.6875 -23.046875q0 -2.640625 0.25 -6.46875l-0.484375 0q-7.671875 12.46875 -21.0 21.0q-13.3125 8.515625 -27.234375 8.515625q-16.328125 0 -25.328125 -10.5625q-9.0 -10.5625 -9.0 -27.125q0 -25.4375 19.3125 -48.109375q19.328125 -22.6875 44.296875 -22.6875q7.4375 0 12.71875 3.25q5.28125 3.234375 8.03125 8.640625q2.765625 5.390625 3.96875 11.15625q1.203125 5.75 1.203125 12.234375q0 1.921875 0 3.84375l0.46875 0l14.890625 -36.96875l19.4375 0zm-41.765625 31.6875q0 -28.3125 -19.921875 -28.3125q-12.484375 0 -22.6875 13.3125q-10.1875 13.3125 -15.0 29.28125q-4.796875 15.953125 -4.796875 27.953125q0 11.28125 4.078125 19.09375q4.09375 7.796875 13.453125 7.796875q13.203125 0 24.0 -12.84375q10.796875 -12.84375 15.828125 -28.4375q5.046875 -15.609375 5.046875 -27.84375z" fill-rule="nonzero"/><path fill="#000000" fill-opacity="0.0" d="m474.41733 168.60892l154.83463 0l0 301.7953l-154.83463 0z" fill-rule="evenodd"/><path fill="#000000" d="m591.9017 378.96204q-7.6875 31.6875 -29.765625 31.6875q-6.71875 0 -11.046875 -4.4375q-4.3125 -4.4375 -4.3125 -11.890625q0 -6.0 4.796875 -22.078125l-0.71875 0q-6.953125 15.359375 -18.0 26.890625q-11.03125 11.515625 -24.953094 11.515625q-18.0 0 -18.96875 -23.046875l-0.46875 0q-3.609375 13.921875 -3.609375 25.6875q0 10.796875 2.40625 18.0q4.5625 14.15625 4.5625 16.796875q0 4.796875 -2.53125 7.796875q-2.515625 3.0 -6.59375 3.0q-11.515625 0 -11.515625 -18.0q0 -5.515625 2.15625 -13.1875l33.59375 -123.125l18.96872 0l-20.40622 74.640625q-1.4375 5.03125 -1.4375 10.5625q0 12.234375 9.8437195 12.234375q6.953125 0 13.4375 -4.078125q6.484375 -4.078125 11.75 -11.875q5.28125 -7.8125 9.359375 -15.71875q4.09375 -7.921875 7.8125 -19.203125q3.71875 -11.28125 5.875 -18.125q2.15625 -6.84375 4.671875 -16.921875q2.53125 -10.078125 3.015625 -11.515625l18.953125 0l-22.5625 82.3125q-1.671875 6.25 -1.671875 8.640625q0 5.28125 4.5625 5.28125q6.0 0 11.03125 -8.640625q5.046875 -8.640625 6.71875 -15.109375l5.046875 1.90625z" fill-rule="nonzero"/><path fill="#000000" fill-opacity="0.0" d="m583.22833 305.82416l150.39374 0l0 267.1811l-150.39374 0z" fill-rule="evenodd"/><path fill="#000000" d="m699.5096 516.9116q-2.15625 11.265625 -8.40625 21.109375q-6.234375 9.84375 -14.875 9.84375q-15.59375 0 -15.59375 -28.5625l0 -48.71872l-0.484375 0l-47.046875 74.640594l-23.515625 0l69.125 -108.71872q0 -0.96875 0.109375 -3.84375q0.125 -2.875 0.125 -4.796875q0 -27.84375 -14.15625 -27.84375q-11.765625 0 -15.125 15.609375l-5.03125 -1.6875q4.3125 -31.4375 21.109375 -31.4375q6.484375 0 10.6875 3.484375q4.203125 3.46875 6.109375 9.828125q1.921875 6.359375 2.640625 11.890625q0.734375 5.515625 0.96875 13.203125l2.390625 82.3125q0.25 8.40625 0.84375 13.4530945q0.609375 5.03125 3.359375 9.359375q2.765625 4.3125 7.5625 4.3125q6.484375 0 10.203125 -6.484375q3.71875 -6.484375 3.71875 -8.875l5.28125 1.921875z" fill-rule="nonzero"/><path fill="#000000" fill-opacity="0.0" d="m177.84251 584.8399l604.31494 0l0 89.7323l-604.31494 0z" fill-rule="evenodd"/><path fill="#000000" d="m190.51439 655.6368q2.328125 -0.0625 3.328125 -1.0625q1.0 -1.0 1.125 -2.359375q0.140625 -1.375 0.140625 -4.765625l0 -28.796875q0 -2.8125 0.203125 -4.8125l-4.796875 0.265625l0 -2.921875l15.71875 -0.0625q12.53125 -0.078125 19.859375 5.859375q7.34375 5.9375 7.34375 17.59375q0 6.265625 -2.9375 11.609375q-2.921875 5.328125 -8.65625 8.5q-5.734375 3.15625 -13.796875 3.15625l-17.53125 0l0 -2.203125zm17.328125 -0.328125q5.59375 0 9.921875 -2.734375q4.34375 -2.734375 6.734375 -7.53125q2.40625 -4.796875 2.40625 -10.734375q0 -9.734375 -5.34375 -15.234375q-5.328125 -5.5 -16.0625 -5.5q-2.328125 0 -3.328125 0.9375q-1.0 0.9375 -1.140625 2.3125q-0.125 1.359375 -0.125 4.75l0 28.40625q0 3.453125 -0.203125 5.1875q2.34375 0.140625 7.140625 0.140625zm45.783356 0.328125q1.671875 0 2.6718903 -0.765625q1.0 -0.765625 1.625 -2.0q0.640625 -1.234375 1.515625 -3.703125l0.65625 -1.859375l13.734375 -37.390625l1.59375 0l14.875 37.921875q0.734375 1.796875 1.265625 3.90625q0.53125 2.09375 0.46875 3.421875l4.53125 -0.265625l0 2.9375l-15.265625 0l0 -2.203125q3.921875 -0.0625 3.921875 -3.203125q0 -1.265625 -0.65625 -3.125l-2.328125 -6.265625l-17.34375 0.40625q-1.0 2.71875 -2.328125 7.125q-0.671875 2.203125 -1.671875 4.59375l5.203125 -0.265625l0 2.9375l-12.468765 0l0 -2.203125zm27.67189 -15.0625l-4.734375 -12.734375l-3.0 -8.1875l-0.140625 0l-2.796875 7.53125l-3.59375 10.125l-1.140625 3.265625l15.40625 0zm57.054382 9.59375q-5.0625 -11.265625 -7.875 -17.75q-2.796875 -6.5 -5.453125 -13.703125l-0.0625 2.9375q-0.609375 19.515625 -0.734375 27.859375q0 1.0 -0.078125 1.46875q0 2.265625 -0.1875 4.1875l5.0 -0.265625l0 2.9375l-12.734375 0l0 -2.203125q2.796875 -0.0625 3.625 -1.5625q0.84375 -1.5 0.96875 -4.5625l1.46875 -35.671875l-4.796875 0.203125l0 -2.859375l10.1875 0l9.078125 20.921875q4.921875 11.609375 7.59375 17.609375l0.125 0q0.8125 -2.0 3.40625 -8.609375q2.53125 -6.390625 5.796875 -14.0625q3.796875 -8.9375 6.53125 -15.859375l9.875 0l0 2.203125q-2.40625 -0.078125 -3.546875 1.296875q-1.125 1.359375 -1.125 4.625l0.0625 1.34375l1.734375 30.328125q0.140625 1.53125 0.140625 4.125l4.859375 -0.203125l0 2.9375l-14.921875 0l0 -2.203125q2.59375 -0.0625 3.515625 -1.484375q0.9375 -1.4375 0.9375 -4.515625q0 -1.265625 -0.0625 -1.921875l-1.734375 -28.40625q-0.125 0.34375 -0.359375 0.875q-0.234375 0.53125 -0.5 1.265625l-15.0 37.0625l-2.0 0l-3.734375 -8.34375zm57.330536 5.46875q2.328125 -0.0625 3.328125 -1.0625q1.0 -1.0 1.125 -2.359375q0.140625 -1.375 0.140625 -4.765625l0 -28.796875q0 -2.8125 0.203125 -4.8125l-4.796875 0.265625l0 -2.921875l14.984375 0l0 2.203125q-2.328125 0.0625 -3.328125 1.0625q-1.0 1.0 -1.140625 2.375q-0.125 1.359375 -0.125 4.75l0 28.59375q0 3.46875 -0.203125 5.203125l12.46875 -0.203125q4.265625 -0.0625 6.390625 -2.6875q2.140625 -2.640625 2.140625 -8.4375l2.265625 0l-0.390625 13.796875l-33.0625 0l0 -2.203125zm95.71362 3.265625q-6.671875 0 -11.8125 -2.828125q-5.125 -2.828125 -7.984375 -8.09375q-2.859375 -5.265625 -2.859375 -12.46875q0 -6.53125 2.625 -12.328125q2.640625 -5.796875 7.90625 -9.421875q5.265625 -3.640625 12.65625 -3.640625q3.59375 0 7.296875 0.96875q3.703125 0.953125 6.5 2.6875l-0.265625 -3.203125l3.671875 0l0 15.265625l-2.40625 0q-0.46875 -6.125 -4.4375 -9.59375q-3.953125 -3.46875 -9.890625 -3.46875q-4.734375 0 -8.640625 2.734375q-3.890625 2.734375 -6.1875 7.578125q-2.296875 4.828125 -2.296875 10.890625q0 6.265625 2.265625 11.203125q2.265625 4.921875 6.328125 7.71875q4.0625 2.796875 9.265625 2.796875q2.859375 0 5.890625 -0.828125q3.046875 -0.828125 5.5 -2.5l0 -14.59375l-4.65625 0.265625l0 -2.9375l15.0625 0l0 2.203125q-3.203125 0 -4.0 2.4375q-0.796875 2.421875 -0.796875 5.5l0 10.1875l-1.796875 0q-2.8125 0 -7.203125 1.734375q-2.0 0.8125 -4.734375 1.265625q-2.734375 0.46875 -5.0 0.46875zm46.131104 -3.265625q2.328125 -0.0625 3.328125 -1.0625q1.0 -1.0 1.125 -2.359375q0.140625 -1.375 0.140625 -4.765625l0 -28.796875q0 -2.8125 0.203125 -4.8125l-4.796875 0.265625l0 -2.921875q6.921875 -0.140625 10.453125 -0.140625q3.203125 0 4.8125 0.078125q9.390625 0.125 13.75 3.15625q4.375 3.03125 4.375 8.765625q0.0625 4.59375 -2.734375 8.265625q-2.796875 3.671875 -9.734375 5.0625q1.140625 0.875 2.0625 2.078125q0.9375 1.1875 2.546875 3.71875l4.53125 7.140625q1.453125 2.328125 2.421875 3.5625q0.96875 1.234375 2.328125 2.0q1.375 0.765625 3.375 0.765625l0 2.203125l-8.390625 0q-1.8125 -1.53125 -3.046875 -3.15625q-1.21875 -1.640625 -2.890625 -4.25l-4.46875 -7.125l-0.859375 -1.40625q-1.078125 -1.796875 -1.875 -2.921875q-0.796875 -1.140625 -1.734375 -2.0q-0.59375 0.0625 -1.859375 0.0625q-1.796875 0 -2.671875 -0.0625l0 12.921875q0 3.53125 -0.203125 5.265625l4.796875 -0.265625l0 2.9375l-14.984375 0l0 -2.203125zm13.328125 -21.125q13.59375 0 13.59375 -10.734375q0 -5.0625 -2.9375 -7.59375q-2.921875 -2.53125 -9.0 -2.53125q-2.328125 0 -3.328125 0.9375q-1.0 0.921875 -1.140625 2.265625q-0.125 1.328125 -0.125 4.71875l0 12.796875q2.0 0.140625 2.9375 0.140625zm69.18768 24.390625q-8.0 0 -13.34375 -3.53125q-5.328125 -3.53125 -7.859375 -9.09375q-2.53125 -5.5625 -2.53125 -11.765625q0 -5.9375 2.625 -11.53125q2.640625 -5.59375 7.875 -9.21875q5.234375 -3.640625 12.703125 -3.640625q7.65625 0 13.015625 3.640625q5.375 3.625 8.046875 9.21875q2.671875 5.59375 2.671875 11.53125q0 5.859375 -2.640625 11.5q-2.640625 5.625 -7.875 9.265625q-5.21875 3.625 -12.6875 3.625zm0.125 -2.734375q5.203125 0 8.90625 -2.953125q3.703125 -2.96875 5.59375 -7.640625q1.90625 -4.671875 1.90625 -9.796875q0 -5.671875 -2.078125 -10.96875q-2.0625 -5.296875 -6.0 -8.65625q-3.921875 -3.375 -9.1875 -3.375q-5.203125 0 -8.9375 2.96875q-3.734375 2.96875 -5.640625 7.703125q-1.890625 4.734375 -1.890625 9.859375q0 5.265625 1.9375 10.5625q1.9375 5.296875 5.859375 8.796875q3.9375 3.5 9.53125 3.5zm68.9245 2.734375q-7.0625 0 -11.171875 -2.5q-4.09375 -2.5 -5.859375 -7.65625q-1.765625 -5.171875 -1.765625 -13.640625l0 -13.53125q0 -4.265625 0.265625 -7.734375l-4.796875 0.203125l0 -2.859375l14.9375 0l0 2.203125q-2.9375 0 -3.734375 1.53125q-0.796875 1.53125 -0.796875 3.734375l0 16.796875q0 5.796875 1.03125 10.03125q1.03125 4.234375 4.0625 6.9375q3.03125 2.6875 8.703125 2.6875q6.921875 0 10.28125 -4.765625q3.375 -4.765625 3.515625 -12.96875l0.203125 -18.71875q0 -2.8125 0.1875 -4.8125l-4.71875 0.265625l0 -2.921875l12.390625 0l0 2.203125q-2.40625 0.0625 -3.40625 1.0625q-0.984375 1.0 -1.125 2.375q-0.140625 1.359375 -0.140625 4.75l-0.125 15.46875q-0.0625 9.671875 -4.296875 15.765625q-4.234375 6.09375 -13.640625 6.09375zm45.93744 -3.265625q2.328125 -0.0625 3.328125 -1.0625q1.0 -1.0 1.125 -2.359375q0.140625 -1.375 0.140625 -4.765625l0 -28.796875q0 -2.8125 0.203125 -4.8125l-4.796875 0.265625l0 -2.921875q9.328125 -0.140625 14.859375 -0.140625q9.9375 0 15.03125 3.46875q5.09375 3.46875 5.09375 10.203125q0 3.859375 -2.03125 7.390625q-2.03125 3.53125 -7.0 5.875q-4.96875 2.328125 -13.15625 2.328125q-1.53125 0 -2.40625 -0.0625l0 9.65625q0 3.53125 -0.203125 5.265625l6.140625 -0.328125l0 3.0l-16.328125 0l0 -2.203125zm14.71875 -17.921875q3.8125 0 6.96875 -1.5q3.171875 -1.5 5.0 -4.328125q1.828125 -2.84375 1.828125 -6.640625q0 -6.0 -3.671875 -8.796875q-3.65625 -2.796875 -10.125 -2.796875q-2.265625 0 -3.171875 0.9375q-0.890625 0.921875 -1.03125 2.21875q-0.125 1.296875 -0.125 4.765625l0 15.9375q1.671875 0.203125 4.328125 0.203125z" fill-rule="nonzero"/><path fill="#000000" fill-opacity="0.0" d="m746.4383 38.637794l1.9842529 524.72437" fill-rule="evenodd"/><path stroke="#000000" stroke-width="12.0" stroke-linejoin="round" stroke-linecap="butt" d="m746.4383 38.637794l1.9842529 524.72437" fill-rule="evenodd"/><path fill="#000000" fill-opacity="0.0" d="m308.86615 585.8163l342.2677 -0.9763794" fill-rule="evenodd"/><path stroke="#000000" stroke-width="2.0" stroke-linejoin="round" stroke-linecap="butt" d="m308.86615 585.8163l342.2677 -0.9763794" fill-rule="evenodd"/><path fill="#000000" fill-opacity="0.0" d="m219.18373 -9.690289l154.83464 0l0 248.31496l-154.83464 0z" fill-rule="evenodd"/><path fill="#000000" d="m270.90247 232.35033q-11.03125 0 -18.843735 -4.078125q-7.796875 -4.078125 -11.15625 -10.203125q-3.359375 -6.125 -4.6875 -10.921875q-1.3125 -4.796875 -1.3125 -8.640625q0 -30.484375 17.28125 -50.28125q17.281235 -19.796875 38.156235 -19.796875q8.40625 0 12.71875 1.921875l0.484375 -0.484375q-0.953125 -1.671875 -6.84375 -9.46875q-5.875 -7.8125 -9.84375 -15.84375q-3.953125 -8.046875 -3.953125 -15.96875q0 -21.359375 33.59375 -21.359375q10.8125 0 18.125 7.203125q7.328125 7.203125 10.6875 18.484375l-4.8125 2.390625q-3.359375 -9.59375 -9.484375 -16.0625q-6.109375 -6.484375 -14.984375 -6.484375q-5.53125 0 -9.25 3.125q-3.71875 3.109375 -3.71875 10.0625q0 6.0 5.15625 15.484375q5.171875 9.484375 11.40625 18.125q6.25 8.640625 11.40625 20.640625q5.15625 12.0 5.15625 22.5625q0 28.078125 -18.84375 48.84375q-18.84375 20.75 -46.4375 20.75zm44.640625 -76.5625l-3.59375 -9.59375q-4.328125 -12.25 -19.6875 -12.25q-10.3125 0 -19.203125 11.171875q-8.875 11.15625 -13.4375 26.15625q-4.5624847 15.0 -4.5624847 28.671875q0 14.40625 5.2812347 20.65625q5.28125 6.234375 12.0 6.234375q18.484375 0 31.6875 -16.5625q13.203125 -16.5625 13.203125 -35.765625q0 -0.71875 0.109375 -3.0q0.125 -2.28125 0.125 -3.71875q0 -7.203125 -1.921875 -12.0z" fill-rule="nonzero"/></g></svg>