<?xml version="1.0" encoding="utf-8"?>
<!-- Generator: Adobe Illustrator 23.0.6, SVG Export Plug-In . SVG Version: 6.00 Build 0)  -->
<svg version="1.1" id="Layer_1" xmlns="http://www.w3.org/2000/svg" xmlns:xlink="http://www.w3.org/1999/xlink" x="0px" y="0px"
	 viewBox="0 0 285.7 228.4" style="enable-background:new 0 0 285.7 228.4;" xml:space="preserve">
<style type="text/css">
	.st0{fill:#617489;}
</style>
<path class="st0" d="M213.2,199.3c-3.2,0-6.1,1.3-8.2,3.4l-21-13.3c-0.4-0.2-0.9-0.4-1.3-0.4l-61.6-0.2l0.2-75.1H168l14,36.2
	c-3.1,2.1-5.2,5.6-5.2,9.6c0,6.4,5.2,11.6,11.6,11.6c6.4,0,11.6-5.2,11.6-11.6c0-6.4-5.2-11.6-11.6-11.6c-0.6,0-1.2,0.1-1.7,0.1
	l-13.8-35.6l33.5-14.2c2.1,2.9,5.5,4.9,9.4,4.9c6.4,0,11.6-5.2,11.6-11.6c0-6.4-5.2-11.6-11.6-11.6c-6.4,0-11.6,5.2-11.6,11.6
	c0,0.7,0.1,1.4,0.2,2.1l-35.2,14.9h-47.9l0.1-49.1H186c0.9,0,1.8-0.5,2.2-1.3l12.6-23.8c1,0.3,2,0.4,3.1,0.4
	c6.4,0,11.6-5.2,11.6-11.6c0-6.4-5.2-11.6-11.6-11.6c-6.4,0-11.6,5.2-11.6,11.6c0,3.5,1.6,6.7,4.1,8.8l-11.9,22.5h-63.1l0.1-34.4
	c0-4.4-2-8.6-5.4-11.3C82.2-17.3,24.9,19.5,31.8,50c0.2-0.2,0.5-0.3,0.8-0.4c1.2-0.3,29.4-6.2,42.1,6c5.2,5.1,7,12.4,5.3,21.9
	c-0.2,1-1,1.6-2,1.6c-0.1,0-0.2,0-0.4,0c-1.1-0.2-1.8-1.2-1.6-2.3c1.5-8.1,0.1-14.2-4.1-18.3C60.8,47.8,33.6,52.8,32.1,53
	c-43.3,5.6-43.6,101.2,3.8,101.8c-0.1,0.4,0.1-0.4,0,0c2.8-3.3,6.3-7,10.5-10.8c7.6-6.9,15.6-12.1,23.7-15.4
	c0.2-30.1-16.5-32-17.2-32.1c-1.1-0.1-1.9-1.1-1.8-2.2c0.1-1.1,1.1-1.9,2.1-1.8c0.9,0.1,20.5,2,20.9,34.6c6.6-2.2,13.2-3.3,19.7-3.1
	c1.1,0,2,1,1.9,2.1c0,1.1-0.9,1.9-2,1.9c0,0,0,0-0.1,0c-28.6-0.8-50.7,23.9-58.7,34.4c-5.1,60.1,48.4,70.3,74.4,64.9
	c2.2-0.4,4.1-1.4,5.8-2.7c-0.2-4.8-0.9-12.4-3.9-20.3c-6.5-17.2-19.9-27.5-39.9-30.7c-1.1-0.2-1.8-1.2-1.7-2.3s1.2-1.8,2.3-1.7
	c26.9,4.2,38.3,20.4,43.1,33.4c2.4,6.4,3.4,12.5,3.9,17.3c1.2-2.1,1.9-4.6,1.9-7.2l0.1-19.2l60.9,0.2l20.4,12.9
	c-0.4,1.2-0.7,2.5-0.7,3.9c0,6.4,5.2,11.6,11.6,11.6c6.4,0,11.6-5.2,11.6-11.6C224.7,204.4,219.5,199.3,213.2,199.3z"/>
<path class="st0" d="M247.9,2h14.8c3.9,0,7.2,0.8,10.2,2.3c3,1.5,5.2,3.7,6.9,6.4c1.6,2.8,2.4,5.9,2.4,9.4c0,3.5-0.8,6.7-2.4,9.4
	c-1.6,2.8-3.9,4.9-6.9,6.5c-2.9,1.5-6.3,2.3-10.2,2.3h-14.8V2z M262.5,35c3.2,0,6-0.6,8.4-1.9c2.4-1.3,4.2-3,5.6-5.2s2-4.8,2-7.7
	s-0.7-5.5-2-7.7c-1.3-2.2-3.2-4-5.6-5.2c-2.4-1.3-5.2-1.9-8.4-1.9h-10.8V35H262.5z"/>
<path class="st0" d="M270.7,89.6h-20.3l-4.4,9.7h-4L258.7,63h3.8l16.6,36.4h-4.1L270.7,89.6z M269.3,86.5L260.6,67l-8.7,19.5H269.3z
	"/>
<path class="st0" d="M285.7,124v36.4H282v-29.1l-14.3,24.5h-1.8l-14.3-24.3v29h-3.7v-36.4h3.2l15.8,27l15.6-27L285.7,124L285.7,124z
	"/>
<path class="st0" d="M247.9,185h3.8V218h20.4v3.3h-24.2V185z"/>
</svg>
