<?xml version="1.0" encoding="utf-8"?>
<!-- Generator: Adobe Illustrator 23.0.6, SVG Export Plug-In . SVG Version: 6.00 Build 0)  -->
<svg version="1.1" id="Layer_1" xmlns="http://www.w3.org/2000/svg" xmlns:xlink="http://www.w3.org/1999/xlink" x="0px" y="0px"
	 viewBox="0 0 300 300" style="enable-background:new 0 0 300 300;" xml:space="preserve">
<style type="text/css">
	.st0{fill:#617489;}
</style>
<g>
	<path class="st0" d="M211.3,226.5c-2.9,0-5.5,1.2-7.4,3.1l-18.9-12c-0.4-0.2-0.8-0.4-1.2-0.4l-55.4-0.2l0.2-67.5h42l12.6,32.5
		c-2.8,1.9-4.7,5-4.7,8.6c0,5.8,4.7,10.4,10.4,10.4s10.4-4.7,10.4-10.4c0-5.8-4.7-10.4-10.4-10.4c-0.5,0-1.1,0.1-1.5,0.1l-12.4-32
		l30.1-12.8c1.9,2.6,4.9,4.4,8.5,4.4c5.8,0,10.4-4.7,10.4-10.4c0-5.8-4.7-10.4-10.4-10.4c-5.8,0-10.4,4.7-10.4,10.4
		c0,0.6,0.1,1.3,0.2,1.9l-31.6,13.4h-43.1l0.1-44.1h58.1c0.8,0,1.6-0.4,2-1.2l11.3-21.4c0.9,0.3,1.8,0.4,2.8,0.4
		c5.8,0,10.4-4.7,10.4-10.4c0-5.8-4.7-10.4-10.4-10.4s-10.4,4.7-10.4,10.4c0,3.1,1.4,6,3.7,7.9l-10.7,20.2h-56.7l0.1-30.9
		c0-4-1.8-7.7-4.9-10.2c-30.5-23.4-82,9.7-75.8,37.1c0.2-0.2,0.4-0.3,0.7-0.4c1.1-0.3,26.4-5.6,37.8,5.4c4.7,4.6,6.3,11.1,4.8,19.7
		c-0.2,0.9-0.9,1.4-1.8,1.4c-0.1,0-0.2,0-0.4,0c-1-0.2-1.6-1.1-1.4-2.1c1.3-7.3,0.1-12.8-3.7-16.5c-10-9.6-34.4-5.1-35.8-4.9
		c-38.9,5-39.2,91,3.4,91.5c-0.1,0.4,0.1-0.4,0,0c2.5-3,5.7-6.3,9.4-9.7c6.8-6.2,14-10.9,21.3-13.8c0.2-27.1-14.8-28.8-15.5-28.9
		c-1-0.1-1.7-1-1.6-2c0.1-1,1-1.7,1.9-1.6c0.8,0.1,18.4,1.8,18.8,31.1c5.9-2,11.9-3,17.7-2.8c1,0,1.8,0.9,1.7,1.9
		c0,1-0.8,1.7-1.8,1.7c0,0,0,0-0.1,0C78,161.7,58.2,183.9,51,193.3c-4.6,54,43.5,63.2,66.9,58.3c2-0.4,3.7-1.3,5.2-2.4
		c-0.2-4.3-0.8-11.1-3.5-18.2c-5.8-15.5-17.9-24.7-35.9-27.6c-1-0.2-1.6-1.1-1.5-2.1s1.1-1.6,2.1-1.5c24.2,3.8,34.4,18.3,38.7,30
		c2.2,5.8,3.1,11.2,3.5,15.6c1.1-1.9,1.7-4.1,1.7-6.5l0.1-17.3l54.7,0.2l18.3,11.6c-0.4,1.1-0.6,2.2-0.6,3.5
		c0,5.8,4.7,10.4,10.4,10.4c5.8,0,10.4-4.7,10.4-10.4C221.6,231.1,216.9,226.5,211.3,226.5z"/>
	<path class="st0" d="M242.5,49.1h13.3c3.5,0,6.5,0.7,9.2,2.1c2.7,1.3,4.7,3.3,6.2,5.8c1.4,2.5,2.2,5.3,2.2,8.5c0,3.1-0.7,6-2.2,8.5
		c-1.4,2.5-3.5,4.4-6.2,5.8c-2.6,1.3-5.7,2.1-9.2,2.1h-13.3L242.5,49.1L242.5,49.1z M255.6,78.8c2.9,0,5.4-0.5,7.6-1.7
		c2.2-1.2,3.8-2.7,5-4.7c1.3-2,1.8-4.3,1.8-6.9s-0.6-4.9-1.8-6.9c-1.2-2-2.9-3.6-5-4.7c-2.2-1.2-4.7-1.7-7.6-1.7h-9.7v26.6H255.6z"
		/>
	<path class="st0" d="M262.9,127.9h-18.2l-4,8.7h-3.6l15-32.6h3.4l14.9,32.7h-3.7L262.9,127.9z M261.7,125.1l-7.8-17.5l-7.8,17.5
		H261.7z"/>
	<path class="st0" d="M276.4,158.8v32.7h-3.3v-26.2l-12.9,22h-1.6l-12.9-21.8v26.1h-3.3v-32.7h2.9l14.2,24.3l14-24.3L276.4,158.8
		L276.4,158.8z"/>
	<path class="st0" d="M242.5,213.6h3.4v29.7h18.3v3h-21.8L242.5,213.6L242.5,213.6z"/>
</g>
</svg>
